<svg xmlns="http://www.w3.org/2000/svg" viewBox="0 0 1200 750" role="img" aria-label="Airport check-in">
  <rect width="1200" height="750" fill="#dfeaf2"/>
  <rect y="492" width="1200" height="258" fill="#c7d6de"/>
  <path d="M124 228h952v210H124z" fill="#ffffff"/>
  <rect x="174" y="285" width="230" height="78" rx="12" fill="#315b7a"/>
  <rect x="430" y="285" width="230" height="78" rx="12" fill="#315b7a"/>
  <rect x="686" y="285" width="230" height="78" rx="12" fill="#315b7a"/>
  <path d="M914 138l80 36-216 91 150 70-58 24-197-66-154 65-68-30 147-88-132-45 60-26 165 30z" fill="#366f91"/>
  <circle cx="292" cy="496" r="54" fill="#f1b08e"/>
  <rect x="240" y="548" width="104" height="118" rx="22" fill="#2d7a5f"/>
  <rect x="470" y="518" width="190" height="118" rx="16" fill="#384e61"/>
  <circle cx="506" cy="646" r="22" fill="#243746"/>
  <circle cx="628" cy="646" r="22" fill="#243746"/>
  <text x="217" y="338" fill="#ffffff" font-family="Arial, sans-serif" font-size="30" font-weight="700">CHECK-IN</text>
</svg>
